<svg id="visual" viewBox="0 0 900 600" width="900" height="600" xmlns="http://www.w3.org/2000/svg" xmlns:xlink="http://www.w3.org/1999/xlink" version="1.1"><rect x="0" y="0" width="900" height="600" fill="#001220"></rect><path d="M0 388L21.5 384.8C43 381.7 86 375.3 128.8 383.7C171.7 392 214.3 415 257.2 423.5C300 432 343 426 385.8 418C428.7 410 471.3 400 514.2 403.8C557 407.7 600 425.3 642.8 428C685.7 430.7 728.3 418.3 771.2 405.5C814 392.7 857 379.3 878.5 372.7L900 366L900 601L878.5 601C857 601 814 601 771.2 601C728.3 601 685.7 601 642.8 601C600 601 557 601 514.2 601C471.3 601 428.7 601 385.8 601C343 601 300 601 257.2 601C214.3 601 171.7 601 128.8 601C86 601 43 601 21.5 601L0 601Z" fill="#fa7268"></path><path d="M0 398L21.5 404.5C43 411 86 424 128.8 435.2C171.7 446.3 214.3 455.7 257.2 454.2C300 452.7 343 440.3 385.8 436.5C428.7 432.7 471.3 437.3 514.2 434.7C557 432 600 422 642.8 419.3C685.7 416.7 728.3 421.3 771.2 429.3C814 437.3 857 448.7 878.5 454.3L900 460L900 601L878.5 601C857 601 814 601 771.2 601C728.3 601 685.7 601 642.8 601C600 601 557 601 514.2 601C471.3 601 428.7 601 385.8 601C343 601 300 601 257.2 601C214.3 601 171.7 601 128.8 601C86 601 43 601 21.5 601L0 601Z" fill="#ef5f67"></path><path d="M0 495L21.5 489.3C43 483.7 86 472.3 128.8 466.2C171.7 460 214.3 459 257.2 464.7C300 470.3 343 482.7 385.8 487.8C428.7 493 471.3 491 514.2 481.8C557 472.7 600 456.3 642.8 451.3C685.7 446.3 728.3 452.7 771.2 452.7C814 452.7 857 446.3 878.5 443.2L900 440L900 601L878.5 601C857 601 814 601 771.2 601C728.3 601 685.7 601 642.8 601C600 601 557 601 514.2 601C471.3 601 428.7 601 385.8 601C343 601 300 601 257.2 601C214.3 601 171.7 601 128.8 601C86 601 43 601 21.5 601L0 601Z" fill="#e34c67"></path><path d="M0 524L21.5 517C43 510 86 496 128.8 492.5C171.7 489 214.3 496 257.2 497.7C300 499.3 343 495.7 385.8 493.7C428.7 491.7 471.3 491.3 514.2 499.2C557 507 600 523 642.8 524.8C685.7 526.7 728.3 514.3 771.2 510C814 505.7 857 509.3 878.5 511.2L900 513L900 601L878.5 601C857 601 814 601 771.2 601C728.3 601 685.7 601 642.8 601C600 601 557 601 514.2 601C471.3 601 428.7 601 385.8 601C343 601 300 601 257.2 601C214.3 601 171.7 601 128.8 601C86 601 43 601 21.5 601L0 601Z" fill="#d53867"></path><path d="M0 563L21.5 564C43 565 86 567 128.8 567.7C171.7 568.3 214.3 567.7 257.2 561.8C300 556 343 545 385.8 544.2C428.7 543.3 471.3 552.7 514.2 557.3C557 562 600 562 642.8 560.8C685.7 559.7 728.3 557.3 771.2 552.7C814 548 857 541 878.5 537.5L900 534L900 601L878.5 601C857 601 814 601 771.2 601C728.3 601 685.7 601 642.8 601C600 601 557 601 514.2 601C471.3 601 428.7 601 385.8 601C343 601 300 601 257.2 601C214.3 601 171.7 601 128.8 601C86 601 43 601 21.5 601L0 601Z" fill="#c62368"></path></svg>